<svg width="30" height="30" viewBox="0 0 30 30" fill="none" xmlns="http://www.w3.org/2000/svg">
<path d="M5.35183 0C2.38715 0 0 2.38715 0 5.35183V23.9582C0 26.9229 2.38715 29.31 5.35183 29.31H15.4363V17.8516H12.4064V13.7263H15.4363V10.2017C15.4363 7.43266 17.2265 4.8902 21.3505 4.8902C23.0202 4.8902 24.255 5.05049 24.255 5.05049L24.1579 8.90294C24.1579 8.90294 22.8986 8.89104 21.5245 8.89104C20.0374 8.89104 19.7989 9.57625 19.7989 10.7138V13.7263H24.276L24.0809 17.8517H19.7989V29.3101H23.9582C26.9228 29.3101 29.31 26.9229 29.31 23.9582V5.35186C29.31 2.38718 26.9228 2.931e-05 23.9582 2.931e-05L5.35183 0Z" fill="#215490"/>
</svg>
