<svg width="30" height="30" viewBox="0 0 30 30" fill="none" xmlns="http://www.w3.org/2000/svg">
<path d="M14.6543 9.77654C11.9538 9.77654 9.77654 11.9747 9.77654 14.6543C9.77654 17.334 11.9747 19.5321 14.6543 19.5321C17.334 19.5321 19.5321 17.334 19.5321 14.6543C19.5321 11.9747 17.334 9.77654 14.6543 9.77654ZM29.3087 14.6543C29.3087 12.6237 29.3087 10.6349 29.204 8.60419C29.0993 6.2595 28.555 4.16602 26.8384 2.4703C25.1217 0.753652 23.0492 0.209348 20.7045 0.104674C18.6738 -1.01385e-07 16.685 0 14.6543 0C12.6237 0 10.6349 -1.01385e-07 8.60419 0.104674C6.2595 0.209348 4.16602 0.753652 2.4703 2.4703C0.753652 4.18696 0.209348 6.2595 0.104674 8.60419C-1.01385e-07 10.6349 0 12.6237 0 14.6543C0 16.685 -1.01385e-07 18.6738 0.104674 20.7045C0.209348 23.0492 0.753652 25.1427 2.4703 26.8384C4.18696 28.555 6.2595 29.0993 8.60419 29.204C10.6349 29.3087 12.6237 29.3087 14.6543 29.3087C16.685 29.3087 18.6738 29.3087 20.7045 29.204C23.0492 29.0993 25.1427 28.555 26.8384 26.8384C28.555 25.1217 29.0993 23.0492 29.204 20.7045C29.3296 18.6948 29.3087 16.685 29.3087 14.6543ZM14.6543 22.1699C10.4883 22.1699 7.13876 18.8204 7.13876 14.6543C7.13876 10.4883 10.4883 7.13876 14.6543 7.13876C18.8204 7.13876 22.1699 10.4883 22.1699 14.6543C22.1699 18.8204 18.8204 22.1699 14.6543 22.1699ZM22.484 8.58326C21.521 8.58326 20.7254 7.80867 20.7254 6.82474C20.7254 5.8408 21.5 5.06622 22.484 5.06622C23.4679 5.06622 24.2425 5.8408 24.2425 6.82474C24.2478 7.05405 24.2059 7.28201 24.1195 7.49447C24.0331 7.70694 23.9039 7.89939 23.74 8.05989C23.5795 8.22375 23.3871 8.3529 23.1746 8.43933C22.9622 8.52576 22.7342 8.56762 22.5049 8.56233L22.484 8.58326Z" fill="#215490"/>
</svg>
