<svg width="30" height="30" viewBox="0 0 30 30" fill="none" xmlns="http://www.w3.org/2000/svg">
<path d="M22.6258 0H6.68418C4.91143 0 3.21128 0.704224 1.95775 1.95775C0.704224 3.21128 0 4.91143 0 6.68418V22.6258C0 24.3986 0.704224 26.0987 1.95775 27.3523C3.21128 28.6058 4.91143 29.31 6.68418 29.31H22.6258C24.3986 29.31 26.0987 28.6058 27.3523 27.3523C28.6058 26.0987 29.31 24.3986 29.31 22.6258V6.68418C29.31 4.91143 28.6058 3.21128 27.3523 1.95775C26.0987 0.704224 24.3986 0 22.6258 0ZM9.90979 23.6614C9.9145 23.7433 9.90244 23.8252 9.87434 23.9021C9.84624 23.9791 9.8027 24.0496 9.7464 24.1091C9.69009 24.1686 9.62221 24.2161 9.54691 24.2484C9.47162 24.2808 9.39051 24.2974 9.30856 24.2972H6.63308C6.47173 24.2933 6.31837 24.2262 6.20595 24.1104C6.09352 23.9946 6.03101 23.8394 6.03185 23.678V12.5507C6.02964 12.4704 6.04356 12.3904 6.07278 12.3155C6.102 12.2407 6.14594 12.1724 6.20199 12.1148C6.25804 12.0572 6.32507 12.0115 6.39911 11.9802C6.47316 11.949 6.55271 11.9329 6.63308 11.9329H9.30856C9.38892 11.9329 9.46848 11.949 9.54252 11.9802C9.61656 12.0115 9.68359 12.0572 9.73965 12.1148C9.7957 12.1724 9.83963 12.2407 9.86886 12.3155C9.89808 12.3904 9.912 12.4704 9.90979 12.5507V23.6614ZM7.92122 9.59264C7.63155 9.59047 7.34515 9.53126 7.07836 9.41841C6.81158 9.30555 6.56964 9.14125 6.36635 8.93489C6.16306 8.72853 6.0024 8.48415 5.89356 8.21571C5.78472 7.94726 5.72981 7.66 5.73198 7.37034C5.73416 7.08067 5.79336 6.79427 5.90622 6.52749C6.01907 6.2607 6.18337 6.01876 6.38973 5.81547C6.59609 5.61218 6.84047 5.45153 7.10891 5.34268C7.37736 5.23384 7.66462 5.17894 7.95428 5.18111C8.52924 5.1998 9.07412 5.44245 9.47267 5.85728C9.87122 6.2721 10.0919 6.82625 10.0876 7.40149C10.0832 7.97674 9.8543 8.52752 9.44957 8.93631C9.04485 9.34511 8.49639 9.57956 7.92122 9.58963M24.18 23.6434C24.1793 23.7953 24.1197 23.9409 24.0137 24.0497C23.9077 24.1585 23.7636 24.2219 23.6118 24.2266H20.7876C20.6355 24.2219 20.4912 24.1583 20.3852 24.0492C20.2792 23.9401 20.2197 23.794 20.2194 23.6419V18.4954C20.2194 17.7273 20.4539 15.154 18.1812 15.154C16.4091 15.154 16.0589 16.9577 15.9912 17.7604V23.7591C15.9913 23.9115 15.932 24.058 15.826 24.1674C15.7199 24.2768 15.5754 24.3407 15.4231 24.3453H12.683C12.5278 24.3449 12.379 24.283 12.2694 24.1731C12.1598 24.0632 12.0983 23.9143 12.0983 23.7591V12.4966C12.103 12.3443 12.1668 12.1998 12.2762 12.0937C12.3856 11.9876 12.5321 11.9283 12.6845 11.9284H15.4231C15.5755 11.9283 15.7219 11.9876 15.8313 12.0937C15.9408 12.1998 16.0046 12.3443 16.0093 12.4966V13.4661C16.4091 12.8808 16.9612 12.4158 17.6059 12.1213C18.2507 11.8267 18.9636 11.7138 19.6678 11.7946C24.2296 11.7946 24.2131 16.0559 24.2131 18.4788L24.18 23.6434Z" fill="#215490"/>
</svg>
