<svg width="27" height="27" viewBox="0 0 27 27" fill="none" xmlns="http://www.w3.org/2000/svg">
<path d="M3.375 5.625V5.0625C3.22582 5.0625 3.08274 5.12176 2.97725 5.22725C2.87176 5.33274 2.8125 5.47582 2.8125 5.625H3.375ZM23.625 5.625H24.1875C24.1875 5.47582 24.1282 5.33274 24.0227 5.22725C23.9173 5.12176 23.7742 5.0625 23.625 5.0625V5.625ZM3.375 6.1875H23.625V5.0625H3.375V6.1875ZM23.0625 5.625V19.125H24.1875V5.625H23.0625ZM21.375 20.8125H5.625V21.9375H21.375V20.8125ZM3.9375 19.125V5.625H2.8125V19.125H3.9375ZM5.625 20.8125C5.17745 20.8125 4.74822 20.6347 4.43176 20.3182C4.11529 20.0018 3.9375 19.5726 3.9375 19.125H2.8125C2.8125 19.8709 3.10882 20.5863 3.63626 21.1137C4.16371 21.6412 4.87908 21.9375 5.625 21.9375V20.8125ZM23.0625 19.125C23.0625 19.5726 22.8847 20.0018 22.5682 20.3182C22.2518 20.6347 21.8226 20.8125 21.375 20.8125V21.9375C22.1209 21.9375 22.8363 21.6412 23.3637 21.1137C23.8912 20.5863 24.1875 19.8709 24.1875 19.125H23.0625Z" fill="white"/>
<path d="M3.375 5.625L13.5 15.75L23.625 5.625" stroke="white" stroke-linecap="round" stroke-linejoin="round"/>
</svg>
